<svg width="18" height="18" viewBox="0 0 18 18" fill="none" xmlns="http://www.w3.org/2000/svg">
<path d="M17.4697 8.99997C17.4697 11.1566 16.7664 13.0491 15.3597 14.6775C13.9531 16.3058 12.2064 17.2841 10.1197 17.6125V11.5325H12.1597L12.5472 8.99997H10.1197V7.34747C10.1197 6.45747 10.5889 6.01247 11.5272 6.01247H12.6172V3.86747C11.9606 3.7508 11.3156 3.69247 10.6822 3.69247C9.67556 3.69247 8.87306 3.98497 8.27473 4.56997C7.67806 5.15664 7.37973 5.98914 7.37973 7.06747V8.99997H5.16473V11.5325H7.37973V17.6125C5.29306 17.2841 3.54639 16.3058 2.13973 14.6775C0.734727 13.0491 0.0322266 11.1566 0.0322266 8.99997C0.0322266 6.58664 0.881393 4.52997 2.57973 2.82997C4.27973 1.13164 6.33639 0.282471 8.74973 0.282471C11.1631 0.282471 13.2197 1.13164 14.9197 2.82997C16.6197 4.52997 17.4697 6.58664 17.4697 8.99997Z" fill="#581B96"/>
</svg>
