<svg width="41" height="42" viewBox="0 0 41 42" fill="none" xmlns="http://www.w3.org/2000/svg">
<path d="M40 4.5V37.5C40 38.9 38.9 40 37.5 40H27.5C26.1 40 25 38.9 25 37.5V4.5C25 3.1 26.1 2 27.5 2H37.5C38.9 2 40 3.1 40 4.5Z" fill="url(#paint0_linear_250_188)" fill-opacity="0.5"/>
<path d="M36.7998 18.5C36.7998 18.4 36.7998 18.3 36.7998 18.2L36.5998 13.2C36.5998 12.8 36.2998 12.3 36.0998 12C35.7998 11.7 35.3998 11.5 34.7998 11.5C33.2998 11.5 31.9998 12.8 31.9998 14.4L32.0998 16.8L31.6998 18.3C31.1998 18.3 30.7998 18.6 30.3998 18.9L27.6998 21.6L26.7998 21.7C26.2998 21.8 25.5998 22.1 24.9998 22.5L23.0998 24.4C22.4998 25 22.1998 25.8 22.1998 26.6L22.2998 29.6C21.9998 29.7 21.6998 29.8 21.4998 30.1C20.9998 30.6 20.7998 31.2 20.7998 31.8V35.9C20.7998 36.5 21.0998 37.1 21.4998 37.6C21.9998 38.1 22.5998 38.3 23.1998 38.3L29.8998 38.4C30.4998 38.4 31.0998 38.1 31.5998 37.7C32.0998 37.2 32.2998 36.6 32.2998 36V31.9C32.2998 31 31.6998 30.1 30.8998 29.7C30.9998 29.1 31.2998 28.6 31.6998 28.2L34.9998 25C35.7998 24.2 36.3998 23 36.4998 21.9L36.7998 18.5ZM30.8998 31.8V35.9C30.8998 36.1 30.7998 36.3 30.5998 36.5C30.3998 36.7 30.2998 36.8 29.9998 36.8L23.1998 36.7C22.9998 36.7 22.7998 36.6 22.5998 36.4C22.3998 36.2 22.2998 36.1 22.2998 35.8V31.7C22.2998 31.5 22.3998 31.3 22.5998 31.1C22.7998 30.9 22.8998 30.8 23.1998 30.8L29.8998 30.9C30.0998 30.9 30.2998 31 30.4998 31.2C30.7998 31.4 30.8998 31.6 30.8998 31.8ZM29.4998 29.3L23.9998 29.2L24.0998 26.5C24.0998 26.1 24.2998 25.6 24.5998 25.4L26.4998 23.5C26.5998 23.3 26.9998 23.2 27.1998 23.1L28.2998 22.9H28.5998L31.4998 20C31.5998 19.9 31.6998 19.9 31.8998 19.9C32.0998 19.9 32.1998 20 32.2998 20C32.3998 20 32.3998 20.2 32.3998 20.4C32.3998 20.6 32.2998 20.7 32.1998 20.8L28.9998 24.2C28.9998 24.2 28.9998 24.4 28.9998 24.6C28.9998 24.8 29.0998 25 29.1998 25.2C29.4998 25.5 29.9998 25.5 30.2998 25.2L33.4998 22C33.8998 21.6 34.1998 21 34.0998 20.4C34.0998 19.9 33.7998 19.4 33.4998 19C33.3998 18.9 33.2998 18.9 33.2998 18.8L33.6998 17.2V14.4C33.6998 13.7 34.1998 13.1 34.9998 13C35.0998 13 35.0998 13 35.1998 13L35.2998 18L34.9998 21.5C34.8998 22.4 34.5998 23.1 33.9998 23.7L30.6998 27C30.0998 27.6 29.5998 28.4 29.4998 29.3Z" fill="#00355A"/>
<path d="M19.2996 30.1C19.0996 29.9 18.7996 29.7 18.4996 29.6L18.3996 26.7C18.3996 25.8 17.9996 25 17.4996 24.6L15.6996 22.6C15.1996 22.1 14.5996 21.8 13.9996 21.8L13.0996 21.7L10.3996 19C10.0996 18.7 9.59961 18.4 9.09961 18.4L8.69961 17L8.79961 14.6C8.79961 13 7.59961 11.7 5.99961 11.7C5.49961 11.7 5.09961 11.8 4.79961 12.2C4.39961 12.4 4.19961 12.9 4.19961 13.3L4.09961 18.3V18.7L4.39961 21.9C4.49961 23 5.09961 24.2 5.89961 25L9.29961 28C9.69961 28.4 9.99961 29 10.0996 29.5C9.19961 29.9 8.69961 30.7 8.69961 31.7V35.7999C8.69961 36.4 8.99961 37 9.39961 37.5C9.89961 38 10.4996 38.2 11.0996 38.2L17.7996 38.0999C18.3996 38.0999 18.9996 37.8 19.4996 37.4C19.9996 36.9 20.1996 36.3 20.1996 35.7V31.6C19.9996 30.9 19.7996 30.4 19.2996 30.1ZM7.59961 18.8C7.49961 18.8 7.49961 18.9 7.39961 19C6.99961 19.4 6.79961 20 6.79961 20.5C6.79961 21 7.09961 21.6 7.39961 22L10.5996 25.2C10.8996 25.5 11.3996 25.5 11.6996 25.2C11.8996 25 11.8996 24.8 11.8996 24.6C11.8996 24.4 11.7996 24.2 11.6996 24L8.49961 20.8C8.29961 20.6 8.29961 20.2 8.49961 19.9C8.69961 19.7 9.09961 19.7 9.39961 19.9L12.2996 22.8V22.9L12.4996 23C12.5996 23 12.6996 23 12.6996 23L13.7996 23.2H13.8996C14.1996 23.3 14.4996 23.4 14.6996 23.6L16.5996 25.5C16.8996 25.8 17.0996 26.2 17.0996 26.6L17.1996 29.2999L11.6996 29.4C11.5996 28.4 11.0996 27.5 10.3996 27L7.19961 23.8C6.59961 23.2 6.29961 22.5 6.19961 21.7L5.89961 18.2L6.09961 13.2C6.09961 13.2 6.09961 13.2 6.29961 13.2C6.99961 13.2 7.59961 13.8 7.59961 14.6L7.29961 17L7.59961 18.8ZM18.5996 31.7V35.7999C18.5996 36 18.4996 36.2 18.2996 36.4C18.0996 36.6 17.9996 36.7 17.6996 36.7L10.9996 36.7999C10.7996 36.7999 10.5996 36.7 10.3996 36.5C10.1996 36.2999 10.0996 36.2 10.0996 35.9V31.7999C10.0996 31.5999 10.1996 31.4 10.3996 31.2C10.5996 31 10.6996 30.9 10.9996 30.9L17.6996 30.7999C17.8996 30.7999 18.0996 30.9 18.2996 31.1C18.4996 31.3 18.5996 31.4 18.5996 31.7Z" fill="#00355A"/>
<path d="M20.5 17C22.5 17 24 15.5 24 13.5C24 11.5 22.5 10 20.5 10C18.5 10 17 11.5 17 13.5C17 15.5 18.5 17 20.5 17ZM18.6 13.5C18.6 12.4 19.5 11.6 20.5 11.6C21.5 11.6 22.4 12.5 22.4 13.5C22.4 14.5 21.5 15.4 20.5 15.4C19.5 15.4 18.6 14.6 18.6 13.5Z" fill="#00355A"/>
<path d="M12.8992 11.8L13.7992 12.3C13.6992 12.7 13.6992 13.1 13.6992 13.5C13.6992 13.9 13.6992 14.3 13.7992 14.7L12.9992 15.2H12.8992C12.6992 15.4 12.3992 15.7 12.2992 16.1C12.1992 16.4 12.1992 16.8 12.3992 17.2L13.2992 18.7C13.3992 19.1 13.8992 19.3 14.1992 19.4C14.4992 19.5 14.8992 19.5 15.2992 19.3L16.0992 18.8C16.6992 19.2 17.2992 19.7 18.0992 20V21C18.0992 21.7999 18.7992 22.5 19.5992 22.5H21.3992C22.1992 22.5 22.8992 21.7999 22.8992 21V20C23.5992 19.8 24.2992 19.4 24.8992 18.8L25.7992 19.3C26.1992 19.4 26.5992 19.6 26.7992 19.4C27.1992 19.3 27.3992 19 27.6992 18.8L28.5992 17.2C28.6992 16.8 28.8992 16.4 28.6992 16.1C28.5992 15.9 28.3992 15.5 28.0992 15.3L26.9992 14.7C27.0992 14.3 27.0992 13.9 27.0992 13.5C27.0992 13.1 27.0992 12.7 26.9992 12.3L27.7992 11.9C28.1992 11.8 28.3992 11.3 28.4992 11C28.5992 10.7 28.5992 10.3 28.3992 9.89995L27.4992 8.39995C27.2992 7.99995 26.9992 7.79995 26.5992 7.69995C26.1992 7.59995 25.7992 7.59995 25.4992 7.79995L24.6992 8.29995C24.0992 7.79995 23.4992 7.49995 22.6992 7.09995V6.19995C22.6992 5.39995 21.9992 4.69995 21.1992 4.69995H19.3992C18.5992 4.69995 17.8992 5.39995 17.8992 6.19995V7.19995C17.1992 7.39995 16.4992 7.79995 15.8992 8.39995L14.9992 7.89995C14.5992 7.79995 14.1992 7.59995 13.9992 7.79995C13.5992 7.89995 13.3992 8.19995 13.0992 8.49995L12.1992 9.99995C12.0992 10.4 11.8992 10.8 12.0992 11C12.3992 11.3 12.5992 11.6 12.8992 11.8ZM19.5992 7.89995V6.29995H21.0992V7.99995C21.0992 8.19995 21.1992 8.39995 21.4992 8.39995H21.6992C22.4992 8.59995 23.2992 9.09995 23.9992 9.79995C24.1992 9.99995 24.4992 9.99995 24.6992 9.89995C24.7992 9.89995 24.8992 9.79995 24.9992 9.79995L26.0992 9.09995L26.8992 10.5L25.6992 11.3L25.5992 11.4C25.4992 11.5 25.2992 11.7 25.2992 11.9V12.3C25.3992 12.7 25.4992 13.1 25.4992 13.7C25.4992 14.1 25.3992 14.5 25.2992 15V15.3C25.2992 15.4 25.3992 15.5 25.3992 15.6V15.7L25.5992 15.9C25.5992 15.9 25.6992 16 25.8992 16.1L26.9992 16.8L26.2992 18L25.0992 17.3C25.0992 17.3 24.9992 17.2 24.7992 17.2H24.6992C24.5992 17.2 24.3992 17.2 24.1992 17.3H24.0992L23.9992 17.2C23.4992 17.7 22.6992 18.2 21.6992 18.6H21.4992L21.0992 19V20.7H19.5992V19C19.5992 18.8 19.4992 18.7 19.3992 18.7C19.3992 18.7 19.2992 18.7 19.2992 18.6L19.1992 18.5H19.0992C17.9992 18.3 17.1992 17.8 16.5992 17.2L16.4992 17.1C16.4992 17 16.2992 17 16.1992 17H16.0992C15.9992 17 15.8992 17.1 15.7992 17.1L14.5992 17.8L13.7992 16.4L14.8992 15.7C14.9992 15.7 14.9992 15.6 15.0992 15.6H15.1992L15.3992 15.4C15.4992 15.3 15.5992 15.2 15.5992 15V14.8C15.4992 14.4 15.3992 14 15.3992 13.4C15.3992 13.1 15.4992 12.6 15.5992 12V11.8C15.5992 11.6 15.3992 11.4 15.2992 11.3C15.2992 11.3 15.1992 11.2 14.9992 11.1L13.8992 10.4L14.6992 8.99995L15.8992 9.69995C15.8992 9.69995 15.9992 9.79995 16.0992 9.79995C16.2992 9.89995 16.5992 9.89995 16.6992 9.79995C16.7992 9.79995 16.7992 9.69995 16.8992 9.69995H16.9992L17.0992 9.59995C17.5992 9.09995 18.3992 8.59995 19.3992 8.19995C19.4992 8.29995 19.5992 8.09995 19.5992 7.89995Z" fill="#00355A"/>
<defs>
<linearGradient id="paint0_linear_250_188" x1="47.9501" y1="4.837" x2="18.0441" y2="36.123" gradientUnits="userSpaceOnUse">
<stop stop-color="#330067"/>
<stop offset="1" stop-color="#C8ADE3"/>
</linearGradient>
</defs>
</svg>
