<svg width="17" height="16" viewBox="0 0 17 16" fill="none" xmlns="http://www.w3.org/2000/svg">
<path d="M5.3225 5.09508C6.1075 4.31008 7.0625 3.91758 8.1875 3.91758C9.3125 3.91758 10.2675 4.31008 11.0525 5.09508C11.8375 5.88008 12.23 6.83508 12.23 7.96008C12.23 9.08508 11.8375 10.0401 11.0525 10.8251C10.2675 11.6101 9.3125 12.0026 8.1875 12.0026C7.0625 12.0026 6.1075 11.6101 5.3225 10.8251C4.5375 10.0401 4.145 9.08508 4.145 7.96008C4.145 6.83508 4.5375 5.88008 5.3225 5.09508ZM6.325 9.82258C6.84 10.3392 7.46083 10.5976 8.1875 10.5976C8.91417 10.5976 9.535 10.3392 10.05 9.82258C10.5667 9.30758 10.825 8.68675 10.825 7.96008C10.825 7.23342 10.5667 6.61258 10.05 6.09758C9.535 5.58092 8.91417 5.32258 8.1875 5.32258C7.46083 5.32258 6.84 5.58092 6.325 6.09758C5.80833 6.61258 5.55 7.23342 5.55 7.96008C5.55 8.68675 5.80833 9.30758 6.325 9.82258ZM13.0575 3.09008C13.2325 3.26675 13.32 3.48425 13.32 3.74258C13.32 3.99925 13.2325 4.22175 13.0575 4.41008C12.8808 4.59675 12.6642 4.69008 12.4075 4.69008C12.1492 4.69008 11.9258 4.59675 11.7375 4.41008C11.5508 4.22175 11.4575 3.99925 11.4575 3.74258C11.4575 3.48425 11.5508 3.26675 11.7375 3.09008C11.9258 2.91508 12.1492 2.82758 12.4075 2.82758C12.6642 2.82758 12.8808 2.91508 13.0575 3.09008ZM16.0275 4.72508C16.0508 5.35842 16.0625 6.43675 16.0625 7.96008C16.0625 9.48342 16.0508 10.5617 16.0275 11.1951C15.9575 12.6251 15.53 13.7326 14.745 14.5176C13.96 15.3026 12.8525 15.7184 11.4225 15.7651C10.7892 15.8118 9.71083 15.8351 8.1875 15.8351C6.66417 15.8351 5.58583 15.8118 4.9525 15.7651C3.5225 15.6951 2.415 15.2734 1.63 14.5001C0.845 13.7267 0.429167 12.6251 0.3825 11.1951C0.335833 10.5617 0.3125 9.48342 0.3125 7.96008C0.3125 6.43675 0.335833 5.34675 0.3825 4.69008C0.4525 3.28342 0.874167 2.19342 1.6475 1.42008C2.42083 0.623416 3.5225 0.190083 4.9525 0.120083C5.58583 0.0967496 6.66417 0.085083 8.1875 0.085083C9.71083 0.085083 10.7892 0.0967496 11.4225 0.120083C12.8525 0.190083 13.96 0.617583 14.745 1.40258C15.53 2.18758 15.9575 3.29508 16.0275 4.72508ZM14.34 12.6001C14.41 12.4134 14.4683 12.1734 14.515 11.8801C14.5617 11.5868 14.5967 11.2351 14.62 10.8251C14.645 10.4151 14.6575 10.0809 14.6575 9.82258C14.6575 9.56592 14.6575 9.20258 14.6575 8.73258C14.6575 8.26425 14.6575 8.00092 14.6575 7.94258C14.6575 7.88425 14.6575 7.62675 14.6575 7.17008C14.6575 6.71175 14.6575 6.35425 14.6575 6.09758C14.6575 5.83925 14.645 5.50508 14.62 5.09508C14.5967 4.68508 14.5617 4.33342 14.515 4.04008C14.4683 3.74675 14.41 3.50675 14.34 3.32008C14.0583 2.59342 13.5542 2.08925 12.8275 1.80758C12.6408 1.73758 12.4008 1.67925 12.1075 1.63258C11.8142 1.58592 11.4625 1.55092 11.0525 1.52758C10.6425 1.50425 10.3142 1.49258 10.0675 1.49258C9.8225 1.49258 9.45917 1.49258 8.9775 1.49258C8.4975 1.49258 8.23417 1.49258 8.1875 1.49258C8.14083 1.49258 7.88333 1.49258 7.415 1.49258C6.945 1.49258 6.58167 1.49258 6.325 1.49258C6.06667 1.49258 5.7325 1.50425 5.3225 1.52758C4.9125 1.55092 4.56083 1.58592 4.2675 1.63258C3.97417 1.67925 3.73417 1.73758 3.5475 1.80758C2.82083 2.08925 2.31667 2.59342 2.035 3.32008C1.965 3.50675 1.90667 3.74675 1.86 4.04008C1.81333 4.33342 1.77833 4.68508 1.755 5.09508C1.73167 5.50508 1.72 5.83342 1.72 6.08008C1.72 6.32508 1.72 6.68842 1.72 7.17008C1.72 7.65008 1.72 7.91342 1.72 7.96008C1.72 8.00675 1.72 8.26425 1.72 8.73258C1.72 9.20258 1.72 9.56592 1.72 9.82258C1.72 10.0809 1.73167 10.4151 1.755 10.8251C1.77833 11.2351 1.81333 11.5868 1.86 11.8801C1.90667 12.1734 1.965 12.4134 2.035 12.6001C2.34 13.3267 2.84417 13.8309 3.5475 14.1126C3.73417 14.1826 3.97417 14.2409 4.2675 14.2876C4.56083 14.3343 4.9125 14.3692 5.3225 14.3926C5.7325 14.4176 6.06083 14.4301 6.3075 14.4301C6.5525 14.4301 6.91583 14.4301 7.3975 14.4301C7.8775 14.4301 8.14083 14.4301 8.1875 14.4301C8.2575 14.4301 8.52083 14.4301 8.9775 14.4301C9.43583 14.4301 9.79333 14.4301 10.05 14.4301C10.3083 14.4301 10.6425 14.4176 11.0525 14.3926C11.4625 14.3692 11.8142 14.3343 12.1075 14.2876C12.4008 14.2409 12.6408 14.1826 12.8275 14.1126C13.5542 13.8076 14.0583 13.3034 14.34 12.6001Z" fill="#581B96"/>
</svg>
