<svg width="17" height="16" viewBox="0 0 17 16" fill="none" xmlns="http://www.w3.org/2000/svg">
<path d="M1.75 0.085083H15.25C15.555 0.085083 15.8183 0.19675 16.04 0.420083C16.2633 0.64175 16.375 0.905083 16.375 1.21008V14.7101C16.375 15.0151 16.2633 15.2784 16.04 15.5001C15.8183 15.7234 15.555 15.8351 15.25 15.8351H1.75C1.445 15.8351 1.18167 15.7234 0.96 15.5001C0.736667 15.2784 0.625 15.0151 0.625 14.7101V1.21008C0.625 0.905083 0.736667 0.64175 0.96 0.420083C1.18167 0.19675 1.445 0.085083 1.75 0.085083ZM3.05 13.5851H5.37H5.4075V6.06258H3.05V13.5851ZM3.2625 4.63758C3.51917 4.90758 3.835 5.04258 4.21 5.04258C4.585 5.04258 4.9075 4.90758 5.1775 4.63758C5.4475 4.36758 5.5825 4.05092 5.5825 3.68758C5.5825 3.32425 5.4475 3.00842 5.1775 2.74008C4.9075 2.47008 4.585 2.33508 4.21 2.33508C3.835 2.33508 3.51917 2.47008 3.2625 2.74008C3.00417 3.00842 2.875 3.32425 2.875 3.68758C2.875 4.05092 3.00417 4.36758 3.2625 4.63758ZM11.805 13.5851H14.125V9.47258C14.125 8.30092 13.9317 7.41008 13.545 6.80008C13.1583 6.19008 12.4258 5.88508 11.3475 5.88508C10.8092 5.88508 10.3467 6.00258 9.96 6.23758C9.57333 6.47258 9.2975 6.75342 9.1325 7.08008H9.0975V6.06258H6.8475V13.5851H9.2025V9.85758C9.2025 9.27258 9.29667 8.80425 9.485 8.45258C9.67167 8.10092 10.035 7.92508 10.575 7.92508C10.855 7.92508 11.0892 7.98342 11.2775 8.10008C11.4642 8.21842 11.5875 8.39425 11.6475 8.62758C11.7058 8.86258 11.7467 9.06758 11.77 9.24258C11.7933 9.41925 11.805 9.64842 11.805 9.93008V13.5851Z" fill="#581B96"/>
</svg>
