<svg width="925" height="694" viewBox="0 0 925 694" fill="none" xmlns="http://www.w3.org/2000/svg">
<circle cx="410" cy="380" r="50" fill="#FFFDFD"/>
<g filter="url(#filter0_i_76_29)">
<ellipse cx="208.694" cy="357" rx="208.694" ry="205" fill="url(#paint0_linear_76_29)"/>
</g>
<ellipse cx="208.694" cy="357" rx="183.243" ry="180" fill="white"/>
<ellipse cx="380" cy="308.5" rx="70" ry="61.5" fill="white"/>
<path d="M440 392.5C440 411.554 423.882 427 404 427C384.118 427 368 411.554 368 392.5C368 373.446 384.118 358 404 358C423.882 358 440 373.446 440 392.5Z" fill="white"/>
<path d="M251.176 232.52L255.6 240.736H194.296C187.133 240.736 179.76 240.947 172.176 241.368C165.013 241.789 158.693 242.421 153.216 243.264C148.16 244.528 144.579 246.213 142.472 248.32C140.365 250.005 138.891 252.955 138.048 257.168L127.936 299.512H102.024C100.76 285.608 99.9173 271.493 99.496 257.168C99.496 242.421 100.339 228.728 102.024 216.088H297.944L307.424 236.944L143.104 461.304L138.68 453.088H202.512C211.36 453.088 219.787 453.088 227.792 453.088C235.797 452.667 243.381 451.824 250.544 450.56C254.757 449.717 258.128 448.453 260.656 446.768C263.605 445.083 265.712 442.133 266.976 437.92L280.248 392.416L305.528 395.576C306.371 409.059 306.371 422.963 305.528 437.288C305.107 451.613 304.053 465.517 302.368 479H95.072L85.592 458.144L251.176 232.52Z" fill="url(#paint1_linear_76_29)"/>
<path d="M382.6 299.4L371.2 301.8C368.933 302.2 367.8 303.6 367.8 306V388C367.8 390.533 368.933 392 371.2 392.4L382.6 394.6V404H329V394.6L340.4 392.4C342.8 392 344 390.6 344 388.2V306C344 303.6 342.8 302.2 340.4 301.8L329 299.4V289.6H382.6V299.4ZM503.983 301.8C501.583 302.2 500.383 303.6 500.383 306V404H479.183L419.783 308.2L424.983 307.6V388.2C424.983 390.6 426.183 392 428.583 392.4L441.783 394.6V404H396.383V394.6L407.783 392.4C410.183 392 411.383 390.6 411.383 388.2V306C411.383 303.6 410.183 302.2 407.783 301.8L396.383 299.4V289.6H435.583L491.783 379.8L486.783 380.4V306C486.783 303.6 485.583 302.2 483.183 301.8L471.183 299.4V289.6H514.383V299.4L503.983 301.8ZM580.842 299.4L569.442 301.8C567.176 302.2 566.042 303.6 566.042 306V388C566.042 390.533 567.176 392 569.442 392.4L580.842 394.6V404H527.242V394.6L538.642 392.4C541.042 392 542.242 390.6 542.242 388.2V306C542.242 303.6 541.042 302.2 538.642 301.8L527.242 299.4V289.6H580.842V299.4ZM594.625 404V394.6L606.025 392.4C608.425 392 609.625 390.6 609.625 388.2V306C609.625 303.6 608.425 302.2 606.025 301.8L594.625 299.4V289.6H648.225V299.4L636.825 301.8C634.425 302.2 633.225 303.6 633.225 306V388.6C633.225 390.733 634.492 392.067 637.025 392.6L648.425 394.6V404H594.625ZM629.625 370.2V354.4L673.425 301.8L660.425 299.4V289.6H703.425V299.4L692.225 301.8C690.225 302.2 688.692 302.933 687.625 304L652.225 344.2L629.625 370.2ZM677.625 404C675.625 404 673.692 402.667 671.825 400C669.958 397.2 667.892 393.533 665.625 389L655.225 368C652.692 362.933 650.492 358.867 648.625 355.8C646.892 352.733 645.092 349.933 643.225 347.4L657.825 330.4C661.558 334.267 664.692 338.2 667.225 342.2C669.892 346.2 672.958 351.267 676.425 357.4L693.225 387.4C693.892 388.733 694.625 389.867 695.425 390.8C696.225 391.733 697.492 392.4 699.225 392.8L706.425 394.6V404H677.625ZM825.166 289.6V299.4L816.966 301.6C814.699 302.133 813.566 303.533 813.566 305.8V362C813.566 372.533 811.766 381 808.166 387.4C804.566 393.8 799.499 398.467 792.966 401.4C786.432 404.333 778.632 405.8 769.566 405.8C754.232 405.8 742.832 402.267 735.366 395.2C728.032 388 724.366 376.533 724.366 360.8V305.8C724.366 303.667 723.232 302.267 720.966 301.6L713.366 299.4V289.6H764.366V299.4L752.366 301.8C749.966 302.333 748.766 303.8 748.766 306.2V363C748.766 370.2 749.632 376.267 751.366 381.2C753.099 386.133 755.766 389.8 759.366 392.2C763.099 394.6 767.766 395.8 773.366 395.8C782.699 395.8 789.166 392.867 792.766 387C796.499 381.133 798.366 373.2 798.366 363.2V306C798.366 303.6 797.232 302.2 794.966 301.8L782.766 299.4V289.6H825.166ZM917.622 371.8C917.622 377.267 916.222 382.6 913.422 387.8C910.622 393 906.155 397.333 900.022 400.8C893.889 404.133 885.755 405.8 875.622 405.8C868.022 405.8 860.955 404.933 854.422 403.2C848.022 401.333 842.622 399.267 838.222 397C837.955 391.933 837.955 386.667 838.222 381.2C838.622 375.6 839.222 370.6 840.022 366.2H853.622L856.422 384.4C856.555 385.467 856.822 386.4 857.222 387.2C857.755 388 858.489 388.867 859.422 389.8C861.022 391.4 863.289 392.867 866.222 394.2C869.289 395.533 872.689 396.2 876.422 396.2C882.022 396.2 886.289 394.733 889.222 391.8C892.289 388.867 893.822 384.867 893.822 379.8C893.822 375.533 892.689 371.933 890.422 369C888.289 366.067 885.355 363.467 881.622 361.2C878.022 358.933 873.889 356.667 869.222 354.4C864.155 351.867 859.355 349.2 854.822 346.4C850.289 343.6 846.555 340.133 843.622 336C840.822 331.733 839.422 326.4 839.422 320C839.422 310.8 842.755 303.133 849.422 297C856.089 290.867 866.022 287.8 879.222 287.8C884.955 287.8 890.622 288.333 896.222 289.4C901.955 290.467 906.955 291.933 911.222 293.8C911.622 298.6 911.622 303.533 911.222 308.6C910.955 313.533 910.489 318.267 909.822 322.8H896.422L893.622 306.8C893.355 305.467 892.955 304.333 892.422 303.4C892.022 302.467 891.355 301.667 890.422 301C888.955 299.933 887.022 299.067 884.622 298.4C882.355 297.6 879.955 297.2 877.422 297.2C872.489 297.2 868.622 298.533 865.822 301.2C863.155 303.867 861.822 307.4 861.822 311.8C861.822 315.8 862.755 319.133 864.622 321.8C866.622 324.467 869.489 326.867 873.222 329C877.089 331.133 881.622 333.533 886.822 336.2C892.289 338.867 897.355 341.8 902.022 345C906.689 348.2 910.422 352 913.222 356.4C916.155 360.667 917.622 365.8 917.622 371.8Z" fill="url(#paint2_linear_76_29)"/>
<path d="M410.24 468V465.928L413.432 465.312C414.179 465.2 414.552 464.789 414.552 464.08V440.112C414.552 439.403 414.179 438.992 413.432 438.88L410.24 438.208V436.136H416.792C417.987 436.136 419.107 436.08 420.152 435.968C421.197 435.856 422.392 435.8 423.736 435.8C427.843 435.8 430.755 436.491 432.472 437.872C434.189 439.253 435.048 441.381 435.048 444.256C435.048 446.011 434.787 447.467 434.264 448.624C433.741 449.744 433.069 450.64 432.248 451.312C431.427 451.984 430.568 452.488 429.672 452.824C428.813 453.123 428.029 453.328 427.32 453.44L425.472 453.944C423.979 453.944 422.56 453.944 421.216 453.944C419.909 453.944 418.92 453.944 418.248 453.944V451.592C418.808 451.667 419.499 451.723 420.32 451.76C421.141 451.76 421.925 451.76 422.672 451.76C423.456 451.76 424.016 451.76 424.352 451.76C426.069 451.723 427.469 451.144 428.552 450.024C429.672 448.867 430.232 447.037 430.232 444.536C430.232 443.155 430.008 441.997 429.56 441.064C429.112 440.093 428.365 439.365 427.32 438.88C426.275 438.357 424.837 438.096 423.008 438.096C422.187 438.096 421.403 438.133 420.656 438.208C419.947 438.283 419.405 438.32 419.032 438.32V464.08C419.032 464.752 419.424 465.163 420.208 465.312L423.624 465.928V468H410.24ZM432.808 468C432.173 468 431.576 467.552 431.016 466.656C430.493 465.76 429.877 464.565 429.168 463.072L427.152 458.704C426.48 457.323 425.827 456.128 425.192 455.12C424.557 454.112 423.904 453.477 423.232 453.216L426.704 452.544C427.899 453.029 428.888 453.701 429.672 454.56C430.456 455.419 431.221 456.576 431.968 458.032L434.992 463.968C435.253 464.453 435.515 464.789 435.776 464.976C436.037 465.163 436.392 465.312 436.84 465.424L439.08 465.928V468H432.808ZM455.292 468.448C450.887 468.448 447.564 467.029 445.324 464.192C443.121 461.355 442.02 457.491 442.02 452.6C442.02 448.941 442.617 445.861 443.812 443.36C445.007 440.821 446.668 438.899 448.796 437.592C450.961 436.285 453.481 435.632 456.356 435.632C460.761 435.632 464.065 437.069 466.268 439.944C468.471 442.781 469.572 446.645 469.572 451.536C469.572 455.12 468.993 458.181 467.836 460.72C466.679 463.221 465.017 465.144 462.852 466.488C460.724 467.795 458.204 468.448 455.292 468.448ZM455.852 438.04C453.052 438.04 450.887 439.197 449.356 441.512C447.825 443.827 447.06 447.355 447.06 452.096C447.06 456.688 447.769 460.16 449.188 462.512C450.644 464.864 452.828 466.04 455.74 466.04C458.503 466.04 460.649 464.883 462.18 462.568C463.748 460.253 464.532 456.707 464.532 451.928C464.532 447.373 463.804 443.92 462.348 441.568C460.929 439.216 458.764 438.04 455.852 438.04ZM497.974 443.248C497.974 445.451 497.339 447.299 496.07 448.792C494.838 450.248 493.046 451.088 490.694 451.312V451.088C492.598 450.901 494.259 451.088 495.678 451.648C497.096 452.208 498.198 453.085 498.982 454.28C499.766 455.475 500.158 456.912 500.158 458.592C500.158 460.421 499.766 462.064 498.982 463.52C498.198 464.976 496.854 466.133 494.95 466.992C493.083 467.813 490.507 468.224 487.222 468.224C486.064 468.224 485.019 468.187 484.086 468.112C483.19 468.037 481.976 468 480.446 468H474.006V465.928L477.366 465.312C478 465.2 478.318 464.827 478.318 464.192V440C478.318 439.44 478.019 439.067 477.422 438.88L474.006 438.208V436.136H480.558C481.827 436.136 482.984 436.08 484.03 435.968C485.112 435.856 486.251 435.8 487.446 435.8C490.022 435.8 492.075 436.099 493.606 436.696C495.136 437.256 496.238 438.096 496.91 439.216C497.619 440.299 497.974 441.643 497.974 443.248ZM481.566 450.192C482.574 450.267 483.656 450.304 484.814 450.304C485.971 450.267 486.83 450.248 487.39 450.248C489.368 450.248 490.88 449.725 491.926 448.68C492.971 447.635 493.494 446.011 493.494 443.808C493.494 441.829 492.971 440.355 491.926 439.384C490.918 438.413 489.182 437.928 486.718 437.928C485.896 437.928 485.131 437.984 484.422 438.096C483.712 438.171 483.171 438.208 482.798 438.208V465.704C483.358 465.779 484.048 465.853 484.87 465.928C485.691 465.965 486.438 465.984 487.11 465.984C490.022 465.984 492.094 465.424 493.326 464.304C494.595 463.147 495.23 461.411 495.23 459.096C495.23 456.819 494.651 455.176 493.494 454.168C492.336 453.16 490.544 452.656 488.118 452.656C487.632 452.656 486.998 452.675 486.214 452.712C485.43 452.712 484.627 452.731 483.806 452.768C482.984 452.768 482.238 452.787 481.566 452.824V450.192ZM518.456 468.448C514.051 468.448 510.728 467.029 508.488 464.192C506.285 461.355 505.184 457.491 505.184 452.6C505.184 448.941 505.781 445.861 506.976 443.36C508.171 440.821 509.832 438.899 511.96 437.592C514.125 436.285 516.645 435.632 519.52 435.632C523.925 435.632 527.229 437.069 529.432 439.944C531.635 442.781 532.736 446.645 532.736 451.536C532.736 455.12 532.157 458.181 531 460.72C529.843 463.221 528.181 465.144 526.016 466.488C523.888 467.795 521.368 468.448 518.456 468.448ZM519.016 438.04C516.216 438.04 514.051 439.197 512.52 441.512C510.989 443.827 510.224 447.355 510.224 452.096C510.224 456.688 510.933 460.16 512.352 462.512C513.808 464.864 515.992 466.04 518.904 466.04C521.667 466.04 523.813 464.883 525.344 462.568C526.912 460.253 527.696 456.707 527.696 451.928C527.696 447.373 526.968 443.92 525.512 441.568C524.093 439.216 521.928 438.04 519.016 438.04ZM542.04 468V465.928L546.856 465.2C547.603 465.088 547.976 464.677 547.976 463.968V438.432H545.568C544.635 438.432 543.795 438.469 543.048 438.544C542.302 438.619 541.742 438.712 541.368 438.824C540.734 439.048 540.36 439.477 540.248 440.112L538.904 445.824H536.496C536.347 444.107 536.291 442.464 536.328 440.896C536.366 439.328 536.478 437.741 536.664 436.136H563.768C563.918 437.741 563.992 439.328 563.992 440.896C564.03 442.464 563.974 444.107 563.824 445.824H561.416L560.072 440.056C560.035 439.72 559.923 439.459 559.736 439.272C559.55 439.085 559.326 438.936 559.064 438.824C558.168 438.563 556.787 438.432 554.92 438.432H552.456V463.968C552.456 464.677 552.83 465.088 553.576 465.2L558.336 465.928V468H542.04ZM581.446 438.208L578.254 438.88C577.544 438.992 577.19 439.421 577.19 440.168V464.024C577.19 464.771 577.544 465.2 578.254 465.312L581.446 465.928V468H568.342V465.928L571.59 465.312C572.299 465.2 572.654 464.789 572.654 464.08V440.168C572.654 439.421 572.299 438.992 571.59 438.88L568.342 438.208V436.136H581.446V438.208ZM600.408 468.448C595.48 468.448 591.821 467.067 589.432 464.304C587.043 461.504 585.848 457.603 585.848 452.6C585.848 448.829 586.483 445.693 587.752 443.192C589.021 440.691 590.795 438.805 593.072 437.536C595.349 436.267 598.056 435.632 601.192 435.632C602.499 435.632 603.955 435.763 605.56 436.024C607.203 436.248 608.715 436.621 610.096 437.144C610.133 438.339 610.115 439.608 610.04 440.952C609.965 442.296 609.835 443.64 609.648 444.984H607.016L606.064 440.392C605.952 440.093 605.821 439.832 605.672 439.608C605.523 439.384 605.299 439.179 605 438.992C604.552 438.731 603.88 438.488 602.984 438.264C602.088 438.04 601.155 437.928 600.184 437.928C597.347 437.928 595.107 439.029 593.464 441.232C591.821 443.435 591 446.981 591 451.872C591 454.709 591.299 457.211 591.896 459.376C592.531 461.504 593.52 463.165 594.864 464.36C596.245 465.555 598.037 466.152 600.24 466.152C601.136 466.152 602.013 466.059 602.872 465.872C603.768 465.685 604.515 465.368 605.112 464.92C605.336 464.733 605.523 464.547 605.672 464.36C605.859 464.136 606.008 463.856 606.12 463.52L607.52 459.32L610.152 459.544C610.189 460.664 610.152 461.859 610.04 463.128C609.965 464.397 609.835 465.629 609.648 466.824C608.453 467.309 607.016 467.701 605.336 468C603.693 468.299 602.051 468.448 600.408 468.448ZM636.385 459.32C636.385 460.851 635.993 462.325 635.209 463.744C634.462 465.125 633.267 466.264 631.625 467.16C630.019 468.019 627.929 468.448 625.353 468.448C623.187 468.448 621.246 468.187 619.529 467.664C617.811 467.104 616.43 466.507 615.385 465.872C615.347 464.528 615.347 463.184 615.385 461.84C615.459 460.496 615.59 459.171 615.777 457.864H618.465L619.249 462.624C619.249 462.848 619.305 463.091 619.417 463.352C619.566 463.576 619.753 463.819 619.977 464.08C620.537 464.603 621.302 465.088 622.273 465.536C623.281 465.984 624.419 466.208 625.689 466.208C627.667 466.208 629.179 465.723 630.225 464.752C631.27 463.781 631.793 462.437 631.793 460.72C631.793 459.413 631.494 458.368 630.897 457.584C630.299 456.763 629.459 456.053 628.377 455.456C627.294 454.859 626.043 454.224 624.625 453.552C623.281 452.955 621.937 452.264 620.593 451.48C619.286 450.696 618.185 449.725 617.289 448.568C616.393 447.373 615.945 445.843 615.945 443.976C615.945 441.587 616.822 439.608 618.577 438.04C620.331 436.435 622.926 435.632 626.361 435.632C627.854 435.632 629.347 435.781 630.841 436.08C632.334 436.379 633.622 436.789 634.705 437.312C634.817 438.656 634.835 439.963 634.761 441.232C634.686 442.464 634.574 443.677 634.425 444.872H631.793L631.009 440.728C630.934 440.429 630.841 440.168 630.729 439.944C630.617 439.683 630.411 439.44 630.113 439.216C629.702 438.843 629.086 438.525 628.265 438.264C627.443 437.965 626.547 437.816 625.577 437.816C623.822 437.816 622.478 438.245 621.545 439.104C620.649 439.925 620.201 441.083 620.201 442.576C620.201 443.845 620.481 444.872 621.041 445.656C621.638 446.44 622.497 447.149 623.617 447.784C624.737 448.419 626.099 449.109 627.705 449.856C629.161 450.565 630.542 451.331 631.849 452.152C633.193 452.936 634.275 453.907 635.097 455.064C635.955 456.184 636.385 457.603 636.385 459.32ZM653.053 468V465.928L656.245 465.312C656.991 465.2 657.365 464.789 657.365 464.08V440.112C657.365 439.403 656.991 438.992 656.245 438.88L653.053 438.208V436.136H659.605C660.799 436.136 661.919 436.08 662.965 435.968C664.01 435.856 665.205 435.8 666.549 435.8C670.655 435.8 673.567 436.491 675.285 437.872C677.002 439.253 677.861 441.381 677.861 444.256C677.861 446.011 677.599 447.467 677.077 448.624C676.554 449.744 675.882 450.64 675.061 451.312C674.239 451.984 673.381 452.488 672.485 452.824C671.626 453.123 670.842 453.328 670.133 453.44L668.285 453.944C666.791 453.944 665.373 453.944 664.029 453.944C662.722 453.944 661.733 453.944 661.061 453.944V451.592C661.621 451.667 662.311 451.723 663.133 451.76C663.954 451.76 664.738 451.76 665.485 451.76C666.269 451.76 666.829 451.76 667.165 451.76C668.882 451.723 670.282 451.144 671.365 450.024C672.485 448.867 673.045 447.037 673.045 444.536C673.045 443.155 672.821 441.997 672.373 441.064C671.925 440.093 671.178 439.365 670.133 438.88C669.087 438.357 667.65 438.096 665.821 438.096C664.999 438.096 664.215 438.133 663.469 438.208C662.759 438.283 662.218 438.32 661.845 438.32V464.08C661.845 464.752 662.237 465.163 663.021 465.312L666.437 465.928V468H653.053ZM675.621 468C674.986 468 674.389 467.552 673.829 466.656C673.306 465.76 672.69 464.565 671.981 463.072L669.965 458.704C669.293 457.323 668.639 456.128 668.005 455.12C667.37 454.112 666.717 453.477 666.045 453.216L669.517 452.544C670.711 453.029 671.701 453.701 672.485 454.56C673.269 455.419 674.034 456.576 674.781 458.032L677.805 463.968C678.066 464.453 678.327 464.789 678.589 464.976C678.85 465.163 679.205 465.312 679.653 465.424L681.893 465.928V468H675.621ZM705.098 443.976L704.202 440.056C704.015 439.496 703.623 439.104 703.026 438.88C702.541 438.731 701.925 438.619 701.178 438.544C700.431 438.469 699.629 438.432 698.77 438.432H693.674V450.416L703.586 450.08V453.16L693.674 452.936V465.536H699.89C700.786 465.536 701.645 465.499 702.466 465.424C703.287 465.349 703.922 465.219 704.37 465.032C704.706 464.92 704.949 464.771 705.098 464.584C705.285 464.397 705.434 464.136 705.546 463.8L707.058 459.432L709.298 459.712C709.298 461.056 709.223 462.419 709.074 463.8C708.925 465.181 708.719 466.581 708.458 468H684.826V465.928L688.074 465.312C688.783 465.2 689.138 464.789 689.138 464.08V440.168C689.138 439.421 688.783 438.992 688.074 438.88L684.826 438.208V436.136H707.45C707.525 437.405 707.562 438.675 707.562 439.944C707.562 441.213 707.506 442.557 707.394 443.976H705.098ZM719.98 436.136C721.286 436.136 722.518 436.08 723.676 435.968C724.87 435.856 726.102 435.8 727.372 435.8C732.636 435.8 736.5 437.107 738.964 439.72C741.428 442.333 742.66 446.123 742.66 451.088C742.66 456.8 741.222 461.131 738.348 464.08C735.51 466.992 731.646 468.392 726.756 468.28C726.158 468.28 725.468 468.261 724.684 468.224C723.937 468.187 723.153 468.131 722.332 468.056C721.51 468.019 720.745 468 720.036 468H713.428V465.928L716.732 465.312C717.404 465.2 717.74 464.808 717.74 464.136V440C717.74 439.44 717.441 439.067 716.844 438.88L713.428 438.208V436.136H719.98ZM722.276 465.592C722.836 465.741 723.601 465.853 724.572 465.928C725.58 466.003 726.457 466.021 727.204 465.984C729.444 465.909 731.348 465.387 732.916 464.416C734.521 463.445 735.734 461.933 736.556 459.88C737.377 457.827 737.788 455.176 737.788 451.928C737.788 447.187 736.854 443.696 734.988 441.456C733.121 439.216 730.246 438.096 726.364 438.096C725.505 438.096 724.721 438.133 724.012 438.208C723.302 438.283 722.724 438.339 722.276 438.376V465.592ZM767.332 443.976L766.436 440.056C766.25 439.496 765.858 439.104 765.26 438.88C764.775 438.731 764.159 438.619 763.412 438.544C762.666 438.469 761.863 438.432 761.004 438.432H755.908V450.416L765.82 450.08V453.16L755.908 452.936V465.536H762.124C763.02 465.536 763.879 465.499 764.7 465.424C765.522 465.349 766.156 465.219 766.604 465.032C766.94 464.92 767.183 464.771 767.332 464.584C767.519 464.397 767.668 464.136 767.78 463.8L769.292 459.432L771.532 459.712C771.532 461.056 771.458 462.419 771.308 463.8C771.159 465.181 770.954 466.581 770.692 468H747.06V465.928L750.308 465.312C751.018 465.2 751.372 464.789 751.372 464.08V440.168C751.372 439.421 751.018 438.992 750.308 438.88L747.06 438.208V436.136H769.684C769.759 437.405 769.796 438.675 769.796 439.944C769.796 441.213 769.74 442.557 769.628 443.976H767.332ZM784.51 453.384V464.136C784.51 464.808 784.846 465.181 785.518 465.256L790.67 465.928V468H775.662V465.928L778.91 465.312C779.619 465.2 779.974 464.789 779.974 464.08V440.168C779.974 439.421 779.619 438.992 778.91 438.88L775.662 438.208V436.136H798.286C798.361 437.405 798.398 438.675 798.398 439.944C798.398 441.213 798.342 442.557 798.23 443.976H795.934L795.038 440.056C794.851 439.496 794.459 439.104 793.862 438.88C793.377 438.731 792.761 438.619 792.014 438.544C791.267 438.469 790.465 438.432 789.606 438.432H784.51V450.808L794.422 450.472V453.608L784.51 453.384ZM815.125 438.208L811.933 438.88C811.224 438.992 810.869 439.421 810.869 440.168V464.024C810.869 464.771 811.224 465.2 811.933 465.312L815.125 465.928V468H802.021V465.928L805.269 465.312C805.979 465.2 806.333 464.789 806.333 464.08V440.168C806.333 439.421 805.979 438.992 805.269 438.88L802.021 438.208V436.136H815.125V438.208ZM848.751 438.88C848.041 439.067 847.687 439.496 847.687 440.168V468H843.879L825.623 440L826.855 439.832V464.08C826.855 464.789 827.228 465.2 827.975 465.312L831.671 465.928V468H819.631V465.928L822.879 465.312C823.588 465.2 823.943 464.789 823.943 464.08V440.168C823.943 439.421 823.588 438.992 822.879 438.88L819.631 438.208V436.136H828.479L846.007 462.96L844.719 463.184V440.168C844.719 439.421 844.364 438.992 843.655 438.88L840.239 438.208V436.136H851.663V438.208L848.751 438.88ZM876.16 443.976L875.264 440.056C875.078 439.496 874.686 439.104 874.088 438.88C873.603 438.731 872.987 438.619 872.24 438.544C871.494 438.469 870.691 438.432 869.832 438.432H864.736V450.416L874.648 450.08V453.16L864.736 452.936V465.536H870.952C871.848 465.536 872.707 465.499 873.528 465.424C874.35 465.349 874.984 465.219 875.432 465.032C875.768 464.92 876.011 464.771 876.16 464.584C876.347 464.397 876.496 464.136 876.608 463.8L878.12 459.432L880.36 459.712C880.36 461.056 880.286 462.419 880.136 463.8C879.987 465.181 879.782 466.581 879.52 468H855.888V465.928L859.136 465.312C859.846 465.2 860.2 464.789 860.2 464.08V440.168C860.2 439.421 859.846 438.992 859.136 438.88L855.888 438.208V436.136H878.512C878.587 437.405 878.624 438.675 878.624 439.944C878.624 441.213 878.568 442.557 878.456 443.976H876.16ZM891.042 436.136C892.349 436.136 893.581 436.08 894.738 435.968C895.933 435.856 897.165 435.8 898.434 435.8C903.698 435.8 907.562 437.107 910.026 439.72C912.49 442.333 913.722 446.123 913.722 451.088C913.722 456.8 912.285 461.131 909.41 464.08C906.573 466.992 902.709 468.392 897.818 468.28C897.221 468.28 896.53 468.261 895.746 468.224C894.999 468.187 894.215 468.131 893.394 468.056C892.573 468.019 891.807 468 891.098 468H884.49V465.928L887.794 465.312C888.466 465.2 888.802 464.808 888.802 464.136V440C888.802 439.44 888.503 439.067 887.906 438.88L884.49 438.208V436.136H891.042ZM893.338 465.592C893.898 465.741 894.663 465.853 895.634 465.928C896.642 466.003 897.519 466.021 898.266 465.984C900.506 465.909 902.41 465.387 903.978 464.416C905.583 463.445 906.797 461.933 907.618 459.88C908.439 457.827 908.85 455.176 908.85 451.928C908.85 447.187 907.917 443.696 906.05 441.456C904.183 439.216 901.309 438.096 897.426 438.096C896.567 438.096 895.783 438.133 895.074 438.208C894.365 438.283 893.786 438.339 893.338 438.376V465.592Z" fill="url(#paint3_linear_76_29)"/>
<path d="M332 414.002L890 414" stroke="black" stroke-width="3" stroke-linecap="round"/>
<defs>
<filter id="filter0_i_76_29" x="0" y="152" width="417.387" height="414" filterUnits="userSpaceOnUse" color-interpolation-filters="sRGB">
<feFlood flood-opacity="0" result="BackgroundImageFix"/>
<feBlend mode="normal" in="SourceGraphic" in2="BackgroundImageFix" result="shape"/>
<feColorMatrix in="SourceAlpha" type="matrix" values="0 0 0 0 0 0 0 0 0 0 0 0 0 0 0 0 0 0 127 0" result="hardAlpha"/>
<feOffset dy="4"/>
<feGaussianBlur stdDeviation="2"/>
<feComposite in2="hardAlpha" operator="arithmetic" k2="-1" k3="1"/>
<feColorMatrix type="matrix" values="0 0 0 0 0 0 0 0 0 0 0 0 0 0 0 0 0 0 0.25 0"/>
<feBlend mode="normal" in2="shape" result="effect1_innerShadow_76_29"/>
</filter>
<linearGradient id="paint0_linear_76_29" x1="208.694" y1="152" x2="208.694" y2="562" gradientUnits="userSpaceOnUse">
<stop stop-color="#8428E0"/>
<stop offset="1"/>
</linearGradient>
<linearGradient id="paint1_linear_76_29" x1="209" y1="-50" x2="209" y2="694" gradientUnits="userSpaceOnUse">
<stop stop-color="#8428E0"/>
<stop offset="1"/>
</linearGradient>
<linearGradient id="paint2_linear_76_29" x1="623.5" y1="236" x2="623.5" y2="480" gradientUnits="userSpaceOnUse">
<stop stop-color="#8428E0"/>
<stop offset="1"/>
</linearGradient>
<linearGradient id="paint3_linear_76_29" x1="662.5" y1="423" x2="662.5" y2="488" gradientUnits="userSpaceOnUse">
<stop stop-color="#8428E0"/>
<stop offset="1"/>
</linearGradient>
</defs>
</svg>
