<svg width="19" height="16" viewBox="0 0 19 16" fill="none" xmlns="http://www.w3.org/2000/svg">
<path d="M16.95 4.30508C16.9733 4.39842 16.985 4.55008 16.985 4.76008C16.985 6.00342 16.7508 7.24008 16.2825 8.47008C15.8125 9.70008 15.15 10.8251 14.295 11.8451C13.44 12.8651 12.3325 13.6909 10.9725 14.3226C9.6125 14.9559 8.1125 15.2726 6.4725 15.2726C4.41083 15.2726 2.52417 14.7217 0.8125 13.6201C1.07083 13.6434 1.36417 13.6551 1.6925 13.6551C3.4025 13.6551 4.9375 13.1276 6.2975 12.0726C5.4775 12.0726 4.75667 11.8326 4.135 11.3526C3.51333 10.8726 3.08583 10.2692 2.8525 9.54258C3.08583 9.56592 3.30833 9.57758 3.52 9.57758C3.84833 9.57758 4.17667 9.54258 4.505 9.47258C3.66 9.28425 2.95667 8.85008 2.395 8.17008C1.83167 7.49175 1.55 6.71842 1.55 5.85008V5.78008C2.06667 6.08508 2.6175 6.24925 3.2025 6.27258C2.10083 5.52258 1.55 4.49175 1.55 3.18008C1.55 2.52342 1.72583 1.90175 2.0775 1.31508C2.9925 2.46342 4.11167 3.37758 5.435 4.05758C6.76 4.73758 8.1725 5.11258 9.6725 5.18258C9.62583 4.90092 9.6025 4.62008 9.6025 4.34008C9.6025 3.33175 9.96 2.46425 10.675 1.73758C11.3883 1.01092 12.2492 0.647583 13.2575 0.647583C14.3358 0.647583 15.2383 1.03425 15.965 1.80758C16.8083 1.64425 17.5933 1.35175 18.32 0.930083C18.0383 1.79675 17.4992 2.47592 16.7025 2.96758C17.4058 2.87425 18.1092 2.67508 18.8125 2.37008C18.2975 3.12008 17.6767 3.76508 16.95 4.30508Z" fill="#581B96"/>
</svg>
