<svg width="20" height="14" viewBox="0 0 20 14" fill="none" xmlns="http://www.w3.org/2000/svg">
<path d="M19.2098 2.32008C19.3282 2.76508 19.4165 3.37425 19.4748 4.14758C19.5332 4.92092 19.574 5.58925 19.5973 6.15258V6.96008C19.5973 9.07008 19.4682 10.6284 19.2098 11.6351C18.9765 12.5034 18.4023 13.0659 17.4873 13.3226C17.0423 13.4409 16.199 13.5292 14.9573 13.5876C13.7157 13.6459 12.579 13.6867 11.5473 13.7101H9.99984C5.99151 13.7101 3.49568 13.5809 2.51234 13.3226C1.59734 13.0659 1.02318 12.5034 0.789844 11.6351C0.67151 11.1901 0.583177 10.5751 0.524844 9.79008C0.46651 9.00508 0.425677 8.34342 0.402344 7.80508V6.96008C0.402344 4.87342 0.53151 3.32675 0.789844 2.32008C0.90651 1.89842 1.11734 1.53508 1.42234 1.23008C1.72734 0.925083 2.09068 0.71425 2.51234 0.597583C2.95734 0.47925 3.80068 0.390916 5.04234 0.332583C6.28568 0.27425 7.42234 0.233416 8.45234 0.210083H9.99984C14.0082 0.210083 16.504 0.33925 17.4873 0.597583C17.909 0.71425 18.2723 0.925083 18.5773 1.23008C18.8823 1.53508 19.0932 1.89842 19.2098 2.32008ZM8.03234 4.11258V9.84258L13.0573 6.96008L8.03234 4.11258Z" fill="#581B96"/>
</svg>
